<svg version="1.2" xmlns="http://www.w3.org/2000/svg" viewBox="0 0 48 48" width="48" height="48">
	<title>trivolve(1)-svg</title>
	<style>
		.s0 { fill: #ffffff } 
	</style>
	<path fill-rule="evenodd" class="s0" d="m47.9 3.9l-6.1 7.7h-6.4v5.6h-6.4v6.5h-4.5v9.5l-8.6 10.6v-26.6l9.5-9.6c4.2-4.3 3.7-3.7 9.3-3.7z"/>
	<path class="s0" d="m16 3.9h-15.6v13.3h15.6z"/>
	<path class="s0" d="m61.5 9.8v2.4h-4v9.8h-2.7v-9.8h-4v-2.4z"/>
	<path fill-rule="evenodd" class="s0" d="m62 22v-12.2h4.7q5.4 0 5.4 3.4 0 2.4-3.1 2.7v0.7h1.8q1.4 0 1.4 1.5v3.9h-2.7v-4.3h-4.7v4.3zm2.7-6.7h1.9q0.7 0 0.9 0 0.3 0 0.7-0.1 0.5-0.1 0.6-0.2 0.2-0.2 0.3-0.5 0.2-0.3 0.2-0.7 0-0.5-0.2-0.8-0.1-0.3-0.3-0.5-0.1-0.1-0.6-0.2-0.4-0.1-0.7-0.1-0.2 0-0.9 0h-1.9z"/>
	<path class="s0" d="m81.3 12.2h-2.7v7.4h2.7v2.4h-8.2v-2.4h2.8v-7.4h-2.8v-2.4h8.2z"/>
	<path class="s0" d="m81.6 9.8h2.7l3.2 11.6h0.7l3.2-11.6h2.8l-3.5 12.2h-5.7z"/>
	<path fill-rule="evenodd" class="s0" d="m94.4 15.9q0-2.7 1.7-4.5 1.6-1.8 4.4-1.8 2.8 0 4.5 1.8 1.7 1.8 1.7 4.5 0 2.8-1.7 4.5-1.7 1.8-4.5 1.8-2.8 0-4.5-1.8-1.6-1.7-1.6-4.5zm3.6-2.8q-0.9 1-0.9 2.8 0 1.8 0.9 2.8 0.9 1.1 2.5 1.1 1.7 0 2.6-1.1 0.8-1 0.8-2.8 0-1.8-0.8-2.8-0.9-1.1-2.6-1.1-1.6 0-2.5 1.1z"/>
	<path class="s0" d="m109.1 22.2q-0.8 0-1.1-0.3-0.4-0.4-0.4-1.1v-11h2.7v10l5.9-0.2v2.4z"/>
	<path class="s0" d="m115.9 9.8h2.8l3.1 11.6h0.7l3.2-11.6h2.8l-3.5 12.2h-5.6z"/>
	<path class="s0" d="m128.9 22v-12.2h8.6v2.4h-5.9v2.5h5v2.4h-5v2.5h5.9v2.4z"/>
	<path class="s0" d="m55.6 28.1h-3.8v-2.3h10.4v2.3h-3.8v9.9h-2.8z"/>
	<path fill-rule="evenodd" class="s0" d="m71.4 34.1h-7q0.2 0.8 0.9 1.3 0.7 0.5 1.8 0.5 0.7 0 1.2-0.2 0.6-0.2 1.1-0.7l1.4 1.6q-1.3 1.5-3.8 1.5-1.6 0-2.8-0.6-1.2-0.6-1.8-1.7-0.7-1.1-0.7-2.5 0-1.4 0.7-2.5 0.6-1.1 1.7-1.7 1.2-0.6 2.6-0.6 1.3 0 2.4 0.6 1.1 0.5 1.7 1.7 0.6 1.1 0.6 2.5 0 0.1 0 0.8zm-6.2-3.1q-0.7 0.6-0.8 1.5h4.5q-0.1-0.9-0.7-1.4-0.6-0.6-1.5-0.6-0.9 0-1.5 0.5z"/>
	<path class="s0" d="m73.6 37.5q-1.2-0.6-1.9-1.7-0.6-1.1-0.6-2.5 0-1.4 0.6-2.5 0.7-1.1 1.9-1.7 1.1-0.6 2.6-0.6 1.5 0 2.5 0.6 1.1 0.6 1.6 1.8l-2 1.1q-0.8-1.3-2.1-1.3-1.1 0-1.7 0.7-0.7 0.7-0.7 1.9 0 1.2 0.7 1.9 0.6 0.7 1.7 0.7 1.4 0 2.1-1.3l2 1.2q-0.5 1.1-1.6 1.7-1 0.6-2.5 0.6-1.5 0-2.6-0.6z"/>
	<path class="s0" d="m88.8 29.5q1 1.1 1 3.1v5.4h-2.7v-5q0-1.1-0.4-1.6-0.5-0.6-1.4-0.6-1 0-1.6 0.7-0.6 0.6-0.6 1.9v4.6h-2.7v-13h2.7v4.6q0.5-0.6 1.3-0.8 0.7-0.3 1.6-0.3 1.7 0 2.8 1z"/>
</svg>